<?xml version="1.0" encoding="UTF-8"?>
<svg id="Layer_1" data-name="Layer 1" xmlns="http://www.w3.org/2000/svg" xmlns:xlink="http://www.w3.org/1999/xlink" viewBox="0 0 494.63 408.75">
  <defs>
    <style>
      .cls-1 {
        fill: url(#linear-gradient);
      }

      .cls-2 {
        fill: #364e77;
      }
    </style>
    <linearGradient id="linear-gradient" x1="-27.25" y1="98.23" x2="210.52" y2="235.51" gradientUnits="userSpaceOnUse">
      <stop offset="0" stop-color="#f7af6d"/>
      <stop offset="0" stop-color="#f7af6d"/>
      <stop offset=".07" stop-color="#f6ab70"/>
      <stop offset=".13" stop-color="#f4a07b"/>
      <stop offset=".19" stop-color="#f18e8d"/>
      <stop offset=".25" stop-color="#ee76a7"/>
      <stop offset=".28" stop-color="#e577a8"/>
      <stop offset=".32" stop-color="#cd7baa"/>
      <stop offset=".37" stop-color="#a782af"/>
      <stop offset=".43" stop-color="#728bb5"/>
      <stop offset=".5" stop-color="#3097be"/>
      <stop offset=".71" stop-color="#32729a"/>
      <stop offset=".9" stop-color="#364e77"/>
    </linearGradient>
  </defs>
  <path class="cls-2" d="M386.26.04c-3.17.27-6.07,1.93-7.9,4.54L98.79,391.68c-3.48,4.83-2.39,11.56,2.44,15.04,4.83,3.48,11.56,2.39,15.04-2.44h0l27.72-38.47h339.89c5.94,0,10.75-4.81,10.75-10.75V53.97c0-5.94-4.81-10.75-10.75-10.75h-106.86l18.82-26.04c3.55-4.76,2.57-11.5-2.2-15.05-2.12-1.58-4.75-2.32-7.38-2.09ZM361.56,64.73h111.56v174.9l-95.26-80.98c-2.19-1.86-5.03-2.77-7.9-2.52-2.17.22-4.22,1.1-5.88,2.52l-128.19,107.7-13.27-9.24,138.95-192.37ZM370.97,180.82l100.64,85.52c.46.49.97.94,1.51,1.34v76.61H159.61l50.4-69.72,20.5,13.94c3.94,2.74,9.22,2.53,12.94-.5l127.52-107.19Z"/>
  <path class="cls-1" d="M9.74,43.22C4.2,43.74-.02,48.41,0,53.97v301.08c0,5.94,4.81,10.75,10.75,10.75h75.27c5.94.08,10.82-4.66,10.9-10.6.08-5.94-4.66-10.82-10.6-10.9-.1,0-.2,0-.3,0H21.51v-44.52c.23-.16.45-.33.67-.5l112.23-76.45,31.08,21.34c4.92,3.34,11.61,2.06,14.95-2.86s2.06-11.61-2.86-14.95h0l-37.13-25.37c-2.07-1.42-4.56-2.07-7.06-1.85-1.81.18-3.54.82-5.04,1.85l-106.86,72.92V64.73h281.25c5.94.08,10.82-4.66,10.9-10.6.08-5.94-4.66-10.82-10.6-10.9-.1,0-.2,0-.3,0H10.75c-.34-.02-.67-.02-1.01,0ZM139.79,80.86c-26.6,0-48.39,21.79-48.39,48.39s21.79,48.39,48.39,48.39,48.39-21.79,48.39-48.39-21.79-48.39-48.39-48.39ZM139.79,156.13c-14.97,0-26.88-11.91-26.88-26.88s11.91-26.88,26.88-26.88,26.88,11.91,26.88,26.88-11.91,26.88-26.88,26.88Z"/>
</svg>