<svg width="16" height="16" viewBox="0 0 16 16" fill="none" xmlns="http://www.w3.org/2000/svg">
<g clip-path="url(#clip0_740_10469)">
<path d="M11.6647 12.3233L13.7517 6.06241C14.584 3.56574 15.0001 2.31741 14.3411 1.65846C13.6821 0.999514 12.4338 1.41563 9.93701 2.24785L3.71619 4.32137C2.32831 4.78398 1.63436 5.01529 1.42373 5.52417C1.37422 5.64377 1.34429 5.77056 1.33508 5.89967C1.29589 6.44902 1.81313 6.96623 2.84759 8.00066L3.03601 8.18907C3.20581 8.35887 3.29071 8.44376 3.35489 8.53827C3.48147 8.72465 3.55332 8.94276 3.5623 9.16788C3.56685 9.28202 3.54903 9.40075 3.51338 9.63822C3.38293 10.5074 3.3177 10.942 3.39454 11.2764C3.54771 11.943 4.06367 12.4662 4.72805 12.6288C5.06137 12.7103 5.49685 12.6512 6.36781 12.533L6.41543 12.5266C6.66095 12.4932 6.78372 12.4766 6.90159 12.4837C7.11556 12.4966 7.32223 12.5663 7.50032 12.6856C7.59843 12.7513 7.68603 12.8389 7.86123 13.0141L8.02873 13.1816C9.03559 14.1884 9.53902 14.6918 10.0731 14.6656C10.2203 14.6584 10.3649 14.6242 10.4998 14.5649C10.9892 14.3495 11.2144 13.6741 11.6647 12.3233Z" stroke="#4E4E4E"/>
<path opacity="0.5" d="M4 12L14 2" stroke="#4E4E4E" stroke-linecap="round"/>
</g>
<defs>
<clipPath id="clip0_740_10469">
<rect width="16" height="16" fill="white"/>
</clipPath>
</defs>
</svg>
