<svg width="24" height="24" viewBox="0 0 24 24" fill="none" xmlns="http://www.w3.org/2000/svg">
    <path d="M9.47239 4.40039H5.66439C4.9663 4.40039 4.40039 4.9663 4.40039 5.66439V9.47239C4.40039 10.1705 4.9663 10.7364 5.66439 10.7364H9.47239C10.1705 10.7364 10.7364 10.1705 10.7364 9.47239V5.66439C10.7364 4.9663 10.1705 4.40039 9.47239 4.40039Z" stroke="#3B4F74" stroke-linecap="round"/>
    <path d="M9.47239 13.2637H5.66439C4.9663 13.2637 4.40039 13.8296 4.40039 14.5277V18.3357C4.40039 19.0338 4.9663 19.5997 5.66439 19.5997H9.47239C10.1705 19.5997 10.7364 19.0338 10.7364 18.3357V14.5277C10.7364 13.8296 10.1705 13.2637 9.47239 13.2637Z" stroke="#3B4F74" stroke-linecap="round"/>
    <path d="M18.3357 4.40039H14.5277C13.8296 4.40039 13.2637 4.9663 13.2637 5.66439V9.47239C13.2637 10.1705 13.8296 10.7364 14.5277 10.7364H18.3357C19.0338 10.7364 19.5997 10.1705 19.5997 9.47239V5.66439C19.5997 4.9663 19.0338 4.40039 18.3357 4.40039Z" stroke="#3B4F74" stroke-linecap="round"/>
    <path d="M18.3357 13.2637H14.5277C13.8296 13.2637 13.2637 13.8296 13.2637 14.5277V18.3357C13.2637 19.0338 13.8296 19.5997 14.5277 19.5997H18.3357C19.0338 19.5997 19.5997 19.0338 19.5997 18.3357V14.5277C19.5997 13.8296 19.0338 13.2637 18.3357 13.2637Z" stroke="#3B4F74" stroke-linecap="round"/>
</svg>
