<svg width="25" height="24" viewBox="0 0 25 24" fill="none" xmlns="http://www.w3.org/2000/svg">
    <path d="M16.0996 4H10.5396L10.4196 4.112L6.21961 8.208L6.09961 8.328V17.264C6.09961 18.784 7.36361 20 8.89961 20H16.0996C17.6356 20 18.8996 18.784 18.8996 17.264V6.744C18.8996 5.224 17.6356 4.008 16.0996 4.008V4ZM10.8596 4.8H10.8996V8.68H6.89961V8.664L10.8596 4.8ZM16.0996 19.2H8.89961C7.78761 19.2 6.89961 18.32 6.89961 17.264V9.48H11.6996V4.8H16.0996C17.2116 4.8 18.0996 5.68 18.0996 6.736V17.256C18.0996 18.32 17.2116 19.192 16.0996 19.192V19.2Z" fill="#3B4F74" stroke="#3B4F74" stroke-width="0.5"/>
    <path d="M14.9002 12.7676H10.1002C9.8762 12.7676 9.7002 12.9436 9.7002 13.1676C9.7002 13.3916 9.8762 13.5676 10.1002 13.5676H14.9002C15.1242 13.5676 15.3002 13.3916 15.3002 13.1676C15.3002 12.9436 15.1242 12.7676 14.9002 12.7676Z" fill="#3B4F74" stroke="#3B4F74" stroke-width="0.5"/>
    <path d="M12.5002 15.6963H10.1002C9.8762 15.6963 9.7002 15.8723 9.7002 16.0963C9.7002 16.3203 9.8762 16.4963 10.1002 16.4963H12.5002C12.7242 16.4963 12.9002 16.3203 12.9002 16.0963C12.9002 15.8723 12.7242 15.6963 12.5002 15.6963Z" fill="#3B4F74" stroke="#3B4F74" stroke-width="0.5"/>
</svg>
